<svg width="1440" height="890" viewBox="0 0 1440 890" fill="none" xmlns="http://www.w3.org/2000/svg">
<g clip-path="url(#clip0_56_50)" filter="url(#filter0_f_56_50)">
<mask id="mask0_56_50" style="mask-type:luminance" maskUnits="userSpaceOnUse" x="0" y="0" width="1440" height="880">
<path d="M1440 0H0V880H1440V0Z" fill="white"/>
</mask>
<g mask="url(#mask0_56_50)">
<path d="M1440 0H0V880H1440V0Z" fill="#372DA6"/>
<path d="M1168 696L1167 119" stroke="url(#paint0_linear_56_50)" stroke-width="10" stroke-linecap="round"/>
<path d="M100 207L99 436" stroke="url(#paint1_linear_56_50)" stroke-width="8" stroke-linecap="round"/>
<path d="M458 684L457 183" stroke="url(#paint2_linear_56_50)" stroke-width="6" stroke-linecap="round"/>
<path d="M345 515L344 272" stroke="url(#paint3_linear_56_50)" stroke-width="6" stroke-linecap="round"/>
<path d="M32 695L31 1297" stroke="url(#paint4_linear_56_50)" stroke-width="8" stroke-linecap="round"/>
<path d="M551 591L550 -46" stroke="url(#paint5_linear_56_50)" stroke-width="10" stroke-linecap="round"/>
<path d="M456 335L455 575" stroke="url(#paint6_linear_56_50)" stroke-width="8" stroke-linecap="round"/>
<path d="M556 296L555 -138" stroke="url(#paint7_linear_56_50)" stroke-width="10" stroke-linecap="round"/>
<path d="M543 690L542 468" stroke="url(#paint8_linear_56_50)" stroke-width="6" stroke-linecap="round"/>
<path d="M1155 381L1154 900" stroke="url(#paint9_linear_56_50)" stroke-width="8" stroke-linecap="round"/>
<path d="M1210 594L1209 918" stroke="url(#paint10_linear_56_50)" stroke-width="6" stroke-linecap="round"/>
<path d="M1280 219L1279 -13" stroke="url(#paint11_linear_56_50)" stroke-width="10" stroke-linecap="round"/>
<path d="M1284 76L1283 516" stroke="url(#paint12_linear_56_50)" stroke-width="6" stroke-linecap="round"/>
<path d="M1411 615L1410 237" stroke="url(#paint13_linear_56_50)" stroke-width="6" stroke-linecap="round"/>
<path d="M1077 47L1076 344" stroke="url(#paint14_linear_56_50)" stroke-width="8" stroke-linecap="round"/>
<path d="M619 652L618 257" stroke="url(#paint15_linear_56_50)" stroke-width="6" stroke-linecap="round"/>
<path d="M1009 186L1008 539" stroke="url(#paint16_linear_56_50)" stroke-width="6" stroke-linecap="round"/>
<path d="M203 7L202 344" stroke="url(#paint17_linear_56_50)" stroke-width="6" stroke-linecap="round"/>
<path d="M1007 595L1006 1237" stroke="url(#paint18_linear_56_50)" stroke-width="8" stroke-linecap="round"/>
<path d="M56 708L55 1096" stroke="url(#paint19_linear_56_50)" stroke-width="10" stroke-linecap="round"/>
<path d="M1143 584L1142 106" stroke="url(#paint20_linear_56_50)" stroke-width="6" stroke-linecap="round"/>
<path d="M313 644L312 1053" stroke="url(#paint21_linear_56_50)" stroke-width="10" stroke-linecap="round"/>
<path d="M767 669L766 29" stroke="url(#paint22_linear_56_50)" stroke-width="8" stroke-linecap="round"/>
<path d="M1112 309L1111 -326" stroke="url(#paint23_linear_56_50)" stroke-width="10" stroke-linecap="round"/>
<path d="M287 221L286 829" stroke="url(#paint24_linear_56_50)" stroke-width="10" stroke-linecap="round"/>
<path d="M421 623L420 1150" stroke="url(#paint25_linear_56_50)" stroke-width="8" stroke-linecap="round"/>
<path d="M735 51L734 658" stroke="url(#paint26_linear_56_50)" stroke-width="8" stroke-linecap="round"/>
<path d="M1436 493L1435 77" stroke="url(#paint27_linear_56_50)" stroke-width="8" stroke-linecap="round"/>
<path d="M191 227L190 -211" stroke="url(#paint28_linear_56_50)" stroke-width="8" stroke-linecap="round"/>
<path d="M547 170L546 417" stroke="url(#paint29_linear_56_50)" stroke-width="6" stroke-linecap="round"/>
<path d="M647 869L646 237" stroke="url(#paint30_linear_56_50)" stroke-width="8" stroke-linecap="round"/>
<path d="M73 543L72 -103" stroke="url(#paint31_linear_56_50)" stroke-width="10" stroke-linecap="round"/>
<path d="M340 188L339 -134" stroke="url(#paint32_linear_56_50)" stroke-width="8" stroke-linecap="round"/>
<path d="M125 54L124 424" stroke="url(#paint33_linear_56_50)" stroke-width="8" stroke-linecap="round"/>
<path d="M46 605L45 922" stroke="url(#paint34_linear_56_50)" stroke-width="6" stroke-linecap="round"/>
<path d="M985 213L984 -167" stroke="url(#paint35_linear_56_50)" stroke-width="6" stroke-linecap="round"/>
</g>
</g>
<defs>
<filter id="filter0_f_56_50" x="-10" y="-10" width="1460" height="900" filterUnits="userSpaceOnUse" color-interpolation-filters="sRGB">
<feFlood flood-opacity="0" result="BackgroundImageFix"/>
<feBlend mode="normal" in="SourceGraphic" in2="BackgroundImageFix" result="shape"/>
<feGaussianBlur stdDeviation="5" result="effect1_foregroundBlur_56_50"/>
</filter>
<linearGradient id="paint0_linear_56_50" x1="1167" y1="119" x2="1167" y2="57819" gradientUnits="userSpaceOnUse">
<stop stop-color="#6558F5" stop-opacity="0"/>
<stop offset="1" stop-color="#6558F5"/>
</linearGradient>
<linearGradient id="paint1_linear_56_50" x1="99" y1="207" x2="99" y2="23107" gradientUnits="userSpaceOnUse">
<stop stop-color="#6558F5" stop-opacity="0"/>
<stop offset="1" stop-color="#6558F5"/>
</linearGradient>
<linearGradient id="paint2_linear_56_50" x1="457" y1="183" x2="457" y2="50283" gradientUnits="userSpaceOnUse">
<stop stop-color="#6558F5" stop-opacity="0"/>
<stop offset="1" stop-color="#6558F5"/>
</linearGradient>
<linearGradient id="paint3_linear_56_50" x1="344" y1="24572" x2="344" y2="272" gradientUnits="userSpaceOnUse">
<stop stop-color="#6558F5" stop-opacity="0"/>
<stop offset="1" stop-color="#6558F5"/>
</linearGradient>
<linearGradient id="paint4_linear_56_50" x1="31" y1="60895" x2="31" y2="695" gradientUnits="userSpaceOnUse">
<stop stop-color="#6558F5" stop-opacity="0"/>
<stop offset="1" stop-color="#6558F5"/>
</linearGradient>
<linearGradient id="paint5_linear_56_50" x1="550" y1="63654" x2="550" y2="-46" gradientUnits="userSpaceOnUse">
<stop stop-color="#6558F5" stop-opacity="0"/>
<stop offset="1" stop-color="#6558F5"/>
</linearGradient>
<linearGradient id="paint6_linear_56_50" x1="455" y1="335" x2="455" y2="24335" gradientUnits="userSpaceOnUse">
<stop stop-color="#6558F5" stop-opacity="0"/>
<stop offset="1" stop-color="#6558F5"/>
</linearGradient>
<linearGradient id="paint7_linear_56_50" x1="555" y1="-138" x2="555" y2="43262" gradientUnits="userSpaceOnUse">
<stop stop-color="#6558F5" stop-opacity="0"/>
<stop offset="1" stop-color="#6558F5"/>
</linearGradient>
<linearGradient id="paint8_linear_56_50" x1="542" y1="22668" x2="542" y2="468" gradientUnits="userSpaceOnUse">
<stop stop-color="#6558F5" stop-opacity="0"/>
<stop offset="1" stop-color="#6558F5"/>
</linearGradient>
<linearGradient id="paint9_linear_56_50" x1="1154" y1="381" x2="1154" y2="52281" gradientUnits="userSpaceOnUse">
<stop stop-color="#6558F5" stop-opacity="0"/>
<stop offset="1" stop-color="#6558F5"/>
</linearGradient>
<linearGradient id="paint10_linear_56_50" x1="1209" y1="32994" x2="1209" y2="594" gradientUnits="userSpaceOnUse">
<stop stop-color="#6558F5" stop-opacity="0"/>
<stop offset="1" stop-color="#6558F5"/>
</linearGradient>
<linearGradient id="paint11_linear_56_50" x1="1279" y1="23187" x2="1279" y2="-13" gradientUnits="userSpaceOnUse">
<stop stop-color="#6558F5" stop-opacity="0"/>
<stop offset="1" stop-color="#6558F5"/>
</linearGradient>
<linearGradient id="paint12_linear_56_50" x1="1283" y1="44076" x2="1283" y2="76" gradientUnits="userSpaceOnUse">
<stop stop-color="#6558F5" stop-opacity="0"/>
<stop offset="1" stop-color="#6558F5"/>
</linearGradient>
<linearGradient id="paint13_linear_56_50" x1="1410" y1="237" x2="1410" y2="38037" gradientUnits="userSpaceOnUse">
<stop stop-color="#6558F5" stop-opacity="0"/>
<stop offset="1" stop-color="#6558F5"/>
</linearGradient>
<linearGradient id="paint14_linear_56_50" x1="1076" y1="29747" x2="1076" y2="47" gradientUnits="userSpaceOnUse">
<stop stop-color="#6558F5" stop-opacity="0"/>
<stop offset="1" stop-color="#6558F5"/>
</linearGradient>
<linearGradient id="paint15_linear_56_50" x1="618" y1="39757" x2="618" y2="257" gradientUnits="userSpaceOnUse">
<stop stop-color="#6558F5" stop-opacity="0"/>
<stop offset="1" stop-color="#6558F5"/>
</linearGradient>
<linearGradient id="paint16_linear_56_50" x1="1008" y1="186" x2="1008" y2="35486" gradientUnits="userSpaceOnUse">
<stop stop-color="#6558F5" stop-opacity="0"/>
<stop offset="1" stop-color="#6558F5"/>
</linearGradient>
<linearGradient id="paint17_linear_56_50" x1="202" y1="7" x2="202" y2="33707" gradientUnits="userSpaceOnUse">
<stop stop-color="#6558F5" stop-opacity="0"/>
<stop offset="1" stop-color="#6558F5"/>
</linearGradient>
<linearGradient id="paint18_linear_56_50" x1="1006" y1="595" x2="1006" y2="64795" gradientUnits="userSpaceOnUse">
<stop stop-color="#6558F5" stop-opacity="0"/>
<stop offset="1" stop-color="#6558F5"/>
</linearGradient>
<linearGradient id="paint19_linear_56_50" x1="55" y1="708" x2="55" y2="39508" gradientUnits="userSpaceOnUse">
<stop stop-color="#6558F5" stop-opacity="0"/>
<stop offset="1" stop-color="#6558F5"/>
</linearGradient>
<linearGradient id="paint20_linear_56_50" x1="1142" y1="47906" x2="1142" y2="106" gradientUnits="userSpaceOnUse">
<stop stop-color="#6558F5" stop-opacity="0"/>
<stop offset="1" stop-color="#6558F5"/>
</linearGradient>
<linearGradient id="paint21_linear_56_50" x1="312" y1="644" x2="312" y2="41544" gradientUnits="userSpaceOnUse">
<stop stop-color="#6558F5" stop-opacity="0"/>
<stop offset="1" stop-color="#6558F5"/>
</linearGradient>
<linearGradient id="paint22_linear_56_50" x1="766" y1="64029" x2="766" y2="29" gradientUnits="userSpaceOnUse">
<stop stop-color="#6558F5" stop-opacity="0"/>
<stop offset="1" stop-color="#6558F5"/>
</linearGradient>
<linearGradient id="paint23_linear_56_50" x1="1111" y1="63174" x2="1111" y2="-326" gradientUnits="userSpaceOnUse">
<stop stop-color="#6558F5" stop-opacity="0"/>
<stop offset="1" stop-color="#6558F5"/>
</linearGradient>
<linearGradient id="paint24_linear_56_50" x1="286" y1="221" x2="286" y2="61021" gradientUnits="userSpaceOnUse">
<stop stop-color="#6558F5" stop-opacity="0"/>
<stop offset="1" stop-color="#6558F5"/>
</linearGradient>
<linearGradient id="paint25_linear_56_50" x1="420" y1="623" x2="420" y2="53323" gradientUnits="userSpaceOnUse">
<stop stop-color="#6558F5" stop-opacity="0"/>
<stop offset="1" stop-color="#6558F5"/>
</linearGradient>
<linearGradient id="paint26_linear_56_50" x1="734" y1="60751" x2="734" y2="51" gradientUnits="userSpaceOnUse">
<stop stop-color="#6558F5" stop-opacity="0"/>
<stop offset="1" stop-color="#6558F5"/>
</linearGradient>
<linearGradient id="paint27_linear_56_50" x1="1435" y1="41677" x2="1435" y2="77" gradientUnits="userSpaceOnUse">
<stop stop-color="#6558F5" stop-opacity="0"/>
<stop offset="1" stop-color="#6558F5"/>
</linearGradient>
<linearGradient id="paint28_linear_56_50" x1="190" y1="-211" x2="190" y2="43589" gradientUnits="userSpaceOnUse">
<stop stop-color="#6558F5" stop-opacity="0"/>
<stop offset="1" stop-color="#6558F5"/>
</linearGradient>
<linearGradient id="paint29_linear_56_50" x1="546" y1="24870" x2="546" y2="170" gradientUnits="userSpaceOnUse">
<stop stop-color="#6558F5" stop-opacity="0"/>
<stop offset="1" stop-color="#6558F5"/>
</linearGradient>
<linearGradient id="paint30_linear_56_50" x1="646" y1="237" x2="646" y2="63437" gradientUnits="userSpaceOnUse">
<stop stop-color="#6558F5" stop-opacity="0"/>
<stop offset="1" stop-color="#6558F5"/>
</linearGradient>
<linearGradient id="paint31_linear_56_50" x1="72" y1="-103" x2="72" y2="64497" gradientUnits="userSpaceOnUse">
<stop stop-color="#6558F5" stop-opacity="0"/>
<stop offset="1" stop-color="#6558F5"/>
</linearGradient>
<linearGradient id="paint32_linear_56_50" x1="339" y1="-134" x2="339" y2="32066" gradientUnits="userSpaceOnUse">
<stop stop-color="#6558F5" stop-opacity="0"/>
<stop offset="1" stop-color="#6558F5"/>
</linearGradient>
<linearGradient id="paint33_linear_56_50" x1="124" y1="54" x2="124" y2="37054" gradientUnits="userSpaceOnUse">
<stop stop-color="#6558F5" stop-opacity="0"/>
<stop offset="1" stop-color="#6558F5"/>
</linearGradient>
<linearGradient id="paint34_linear_56_50" x1="45" y1="32305" x2="45" y2="605" gradientUnits="userSpaceOnUse">
<stop stop-color="#6558F5" stop-opacity="0"/>
<stop offset="1" stop-color="#6558F5"/>
</linearGradient>
<linearGradient id="paint35_linear_56_50" x1="984" y1="-167" x2="984" y2="37833" gradientUnits="userSpaceOnUse">
<stop stop-color="#6558F5" stop-opacity="0"/>
<stop offset="1" stop-color="#6558F5"/>
</linearGradient>
<clipPath id="clip0_56_50">
<rect width="1440" height="880" fill="white"/>
</clipPath>
</defs>
</svg>
